# xmcd
#
# Track frame offsets: 
#        150
#        9999
#        18169
#        30015
#        37849
#        48072
#        57201
#        68577
#        74681
#        82720
#        90972
#        100796
#        113999
#        124501
#        136871
#        146213
#        157754
#        167866
#        177237
#        187040
#        200005
#        210448
#        221217
#        230670
#        240941
#        250133
#        261893
#        270119
#        281783
#        292909
#        305344
#        318150
#        330550
#
# Disc length: 4559 seconds
#
# Revision: 0
# Processed by: cddbd v1.5.2PL0 Copyright (c) Steve Scherf et al.
# Submitted via: ExactAudioCopy v1.0b4
#
DISCID=b311cd21
DTITLE=Various Artist - Influence 03 Johnny Cash: Next In Line Disc 1
DYEAR=1900
DGENRE=Country
TTITLE0=Cash, Johnny - Rock Island Line
TTITLE1=Cash, Johnny - Wreck Of The Old '97
TTITLE2=Cash, Johnny - Doin' My Time
TTITLE3=Cash, Johnny - If The Good Lord's Willing
TTITLE4=Cash, Johnny - I Was There When It Happened
TTITLE5=Cash, Johnny - Remember Me (I'm The One Who Loves You)
TTITLE6=Cash, Johnny - Oh, Lonesome Me
TTITLE7=Cash, Johnny - You Tell Me
TTITLE8=Cash, Johnny - I Can't Help It (If I'm Still In Love With You)
TTITLE9=Cash, Johnny - Sugartime
TTITLE10=Cash, Johnny - Born To Lose
TTITLE11=Cash, Johnny - Supper - Time
TTITLE12=Cash, Johnny - Frankie's Man, Johnny
TTITLE13=Cash, Johnny - That's Enough
TTITLE14=Cash, Johnny - One More Ride
TTITLE15=Cash, Johnny - I'd Rather Die Young (Then Grow Old Without Yo
TTITLE15=u)
TTITLE16=Cash, Johnny - Shepherd Of My Heart
TTITLE17=Cash, Johnny - Lead Me Gently Home
TTITLE18=Cash, Johnny - The Great Speckled Bird
TTITLE19=Cash, Johnny - Remember The Alamo
TTITLE20=Cash, Johnny - I Couldn't Keep From Crying
TTITLE21=Cash, Johnny - My Shoes Keep Walking Back To You
TTITLE22=Cash, Johnny - Feel Better All Over (More Than Anywhere Else)
TTITLE23=Cash, Johnny - Just One More
TTITLE24=Cash, Johnny - Honky Tonk Girl
TTITLE25=Cash, Johnny - I'm So Lonesome I Could Cry
TTITLE26=Cash, Johnny - Time Changes Everything
TTITLE27=Cash, Johnny - Transfusion Blues [Cocaine Blues]
TTITLE28=Cash, Johnny - He'll Understand And Say Well Done
TTITLE29=Cash, Johnny - I Walk The Line
TTITLE30=Cash, Johnny - Folsom Prison Blues
TTITLE31=Cash, Johnny - Next In Line
TTITLE32=Cash, Johnny - Big River
EXTD=
EXTT0=
EXTT1=
EXTT2=
EXTT3=
EXTT4=
EXTT5=
EXTT6=
EXTT7=
EXTT8=
EXTT9=
EXTT10=
EXTT11=
EXTT12=
EXTT13=
EXTT14=
EXTT15=
EXTT16=
EXTT17=
EXTT18=
EXTT19=
EXTT20=
EXTT21=
EXTT22=
EXTT23=
EXTT24=
EXTT25=
EXTT26=
EXTT27=
EXTT28=
EXTT29=
EXTT30=
EXTT31=
EXTT32=
PLAYORDER=
